<svg id="Isolation_Mode" xmlns="http://www.w3.org/2000/svg" width="304.333" height="102.377" viewBox="0 0 304.333 102.377"><path fill="#E12029" d="M295.724 39.503h4.147v-5.712h-4.147v-9.414h-6.625v9.414h-4.07v5.712h4.07v30.896c-.039.494-.106 1.605-.106 3.334 0 2.401 2.733 3.735 2.733 3.735h8.138V72.5h-2.669c-1.276 0-1.481-.722-1.497-1.124h.026V39.503zM257.724 40.127s-.208-7.317-9.42-7.317-9.58 7.317-9.58 7.317v30.75h.034c.185 1.468 1.402 6.955 9.386 6.955s9.321-5.487 9.538-6.955h.042v-.362l-.017-30.387.017-.001zm-6 30.388s-.646 1.731-3.376 1.731-3.624-1.731-3.624-1.731V40.127s.646-1.733 3.376-1.733 3.624 1.733 3.624 1.733v30.388zM282.06 70.507V61.47l-.163-.82-12.014-14.208v-5.794c0-.754.252-.985.252-.985l-.018-.003c.461-.457 1.262-.941 2.621-.941 2.163 0 3.092 1.219 3.332 1.607h-.01v6.008h5.898v-6.008h-.01c-.092-.932-1-7.192-9.021-7.192-8.663 0-9.01 7.318-9.01 7.318-.069.18.029 8.142.029 8.142l12.105 14.685v7.272c-.084.196-.805 1.695-3.359 1.695-2.73 0-3.623-1.731-3.623-1.731h-.012V61.47h-6.005v9.191h.026c.082.992.935 7.17 9.41 7.17 8.473 0 9.461-6.178 9.564-7.17h.001v-.012l.015-.135-.008-.007zM225.605 33.103c-2.681 0-5.08 1.922-6.631 3.543v-3.019h-6v68.75h6V73.931c1.058 1.359 3.345 3.793 6.22 3.793 3.988 0 6.686-3.226 6.686-6.685V37.501c-.001 0-1.643-4.398-6.275-4.398m.47 36.471s-.236 2.933-3.285 2.933c-1.701 0-3-1.242-3.814-2.34V40.879c.834-1.024 2.346-2.616 3.699-2.616 1.992 0 3.4.352 3.4 3.401v27.91zM41.917 22.375h4.875v55.75h-4.875zM41.917 7.375h4.875v8.375h-4.875zM95.292 22.375h4.875v55.75h-4.875zM95.292 7.375h4.875v8.375h-4.875zM25.917 28.508c-.619-1.148-3.651-6.133-9.625-6.133 0 0-7.875 0-10.5 6.75-.384 1.535-.632 3.202-.792 4.853v35.089c.418 1.964 2.607 9.808 10.917 9.808 6.048 0 8.797-3.49 10-6.031v6.031h4.875V0h-4.875v28.508zm0 37.513c-.885 2.039-3.85 7.955-8.475 7.955-4.875 0-7.151-5.194-7.652-6.517a88.648 88.648 0 0 1-.04-.692V32.798c.095-.312.19-.608.285-.891 1.084-2.02 3.372-5.106 7.267-5.106 4.539 0 7.533 5.31 8.615 7.603v31.617zM117.667 8.25h-4.875v14h-5.5v4.875h5.5v45.25c0 4.599 3.261 5.722 3.261 5.722h9.748v-4.078s-3.549.123-5.873.123c-2.325 0-2.261-1.767-2.261-1.767v-45.25h8.25V22.25h-8.25v-14zM83.886 67.313V22.23h-4.529v4.409c-1.184-1.526-4.122-4.402-9.62-4.654-9.619 0-10.454 7.755-10.454 7.755v41.767c0 1.816 3.73 6.381 10.111 6.381 6.38 0 9.423-4.761 9.423-4.761s.098 6.037.098 10.208c0 4.172-1.717 7.755-9.57 7.755s-6.43-7.067-6.43-7.067H57.86c-1.235 4.658 2.697 9.55 6.902 10.942 1.845.612 3.809.782 5.752.776 2.17-.008 4.373-.237 6.385-1.049 2.869-1.158 5.006-3.697 6.054-6.571 1.159-3.179.933-6.624.933-9.938v-10.87zm-4.529-.076s-3.828 6.772-9.227 6.772-7.215-5.252-7.215-5.252V30.87c-.147.098 1.914-5.056 7.362-5.056 4.683 0 7.375 3.464 8.234 4.791v.02l.07.09c.153.244.236.4.236.4l.002-.007c.194.37.422.967.538 1.824v34.305zM252.706 17.988a6.408 6.408 0 1 1-12.816 0 6.408 6.408 0 0 1 12.816 0M281.561 17.988a6.408 6.408 0 1 1-12.816 0 6.408 6.408 0 0 1 12.816 0M223.851 17.988a6.407 6.407 0 1 1-12.815 0 6.408 6.408 0 0 1 12.815 0"/><g fill="#E12029"><path d="M191.817 22.166V74.87c6.598-6.825 10.662-16.111 10.662-26.352s-4.064-19.527-10.662-26.352zM144.248 72.01c2.666.278 4.722-.819 5.577-1.378.009-.023.021-.047.029-.072.208-.148.416-.317.623-.483l2.621-2.923V50.379c-2.069 1.548-7.973 6.021-10.332 8.379-2.194 2.194-2.144 6.398-1.997 8.285-.005.002-.011.002-.017.003.025.757.302 4.631 3.496 4.964z"/><path d="M184.344 76.75V16.159a37.743 37.743 0 0 0-8.104-3.728v64.32h-7.473V10.825a38.448 38.448 0 0 0-4.221-.239c-20.948 0-37.931 16.983-37.931 37.932a37.752 37.752 0 0 0 7.415 22.525c-.402-1.414-.576-2.823-.566-4.013.001-.225.014-.424.026-.624 0-.06-.005-.119-.005-.181 0-1.959.288-3.728.864-5.305a15.076 15.076 0 0 1 2.357-4.24 17.34 17.34 0 0 1 1.747-1.882c.052-.084.113-.166.197-.239.086-.076.279-.225.55-.426.32-.268.651-.525.994-.775.327-.237.673-.449 1.009-.676 3.511-2.507 9.554-6.726 11.644-8.183l-.082-5.991s-1.604-3.086-5.391-3.086c-3.245 0-5.124 2.412-5.598 3.103v7.269h-6.75l.124-7.696c0-4.897 6.915-8.725 12.882-8.725 5.104 0 8.034 2.374 8.776 3.061.324.267.631.547.906.854.943 1.051 1.625 2.33 2.043 3.835.42 1.507.629 3.168.629 4.986v34.558h-6.725v-5.083c-1.772 2.77-4.442 5.464-8.347 6.436-1.625.404-3.05.455-4.298.24a37.757 37.757 0 0 0 23.527 8.19c9.736 0 18.611-3.671 25.326-9.699h-5.527v-.001z"/></g></svg>