<svg id="Layer_1" xmlns="http://www.w3.org/2000/svg" width="86.883" height="86.882" viewBox="0 0 86.883 86.882"><path fill="#222" d="M84.497 69.31L65.279 50.092c6.14-12.858 3.886-28.72-6.759-39.364-13.503-13.507-35.401-13.507-48.906 0-13.506 13.506-13.506 35.4 0 48.904 11.463 11.462 28.965 13.192 42.254 5.203l18.545 18.547c3.866 3.869 10.139 3.869 14.006 0l.077-.076c3.869-3.868 3.869-10.134.001-13.996zm-32.49-21.388c-.563.37-1.101.804-1.599 1.297l-.077.078a9.958 9.958 0 0 0-1.797 2.459c-8.646 7.557-21.791 7.223-30.029-1.019-8.595-8.592-8.595-22.525 0-31.12 8.595-8.596 22.529-8.596 31.125 0 7.709 7.708 8.497 19.71 2.377 28.305z"/></svg>