<svg id="Layer_1" xmlns="http://www.w3.org/2000/svg" width="86.883" height="86.882" viewBox="0 0 86.883 86.882"><g fill="#FFF"><path d="M30.694 31.262c-4.394 4.394-4.394 11.517 0 15.909 4.211 4.213 10.931 4.384 15.351.521.234-.452.54-.877.919-1.257l.039-.04c.255-.252.529-.474.817-.663 3.129-4.394 2.726-10.53-1.215-14.47-4.394-4.394-11.517-4.394-15.911 0z"/><path d="M74.159 12.723c-16.966-16.965-44.47-16.965-61.436 0-16.965 16.965-16.965 44.471 0 61.437 16.965 16.965 44.47 16.965 61.436 0 16.966-16.966 16.966-44.472 0-61.437zM64.43 63.821l-.039.039a5.061 5.061 0 0 1-7.16 0l-9.481-9.481c-6.794 4.084-15.741 3.199-21.601-2.66-6.905-6.904-6.905-18.097 0-25.001 6.904-6.905 18.098-6.905 25.002 0 5.441 5.441 6.593 13.55 3.455 20.123l9.824 9.824a5.058 5.058 0 0 1 0 7.156z"/></g></svg>