<?xml version="1.0" encoding="utf-8"?>
<!-- Generator: Adobe Illustrator 16.0.0, SVG Export Plug-In . SVG Version: 6.00 Build 0)  -->
<!DOCTYPE svg PUBLIC "-//W3C//DTD SVG 1.1//EN" "http://www.w3.org/Graphics/SVG/1.1/DTD/svg11.dtd">
<svg version="1.1" id="Isolation_Mode" xmlns="http://www.w3.org/2000/svg" xmlns:xlink="http://www.w3.org/1999/xlink" x="0px"
	 y="0px" width="304.333px" height="102.377px" viewBox="0 0 304.333 102.377" enable-background="new 0 0 304.333 102.377"
	 xml:space="preserve">
<path fill="#111111" d="M295.724,39.503h4.147v-5.712h-4.147v-9.414h-6.625v9.414h-4.07v5.712h4.07v30.896
	c-0.039,0.494-0.106,1.605-0.106,3.334c0,2.401,2.733,3.735,2.733,3.735h8.138V72.5h-2.669c-1.276,0-1.481-0.722-1.497-1.124h0.026
	V39.503z"/>
<path fill="#111111" d="M257.724,40.127c0,0-0.208-7.317-9.42-7.317s-9.58,7.317-9.58,7.317v30.75h0.034
	c0.185,1.468,1.402,6.955,9.386,6.955s9.321-5.487,9.538-6.955h0.042v-0.36v-0.002l-0.017-30.387L257.724,40.127L257.724,40.127z
	 M251.724,70.515c0,0-0.646,1.731-3.376,1.731s-3.624-1.731-3.624-1.731V40.127c0,0,0.646-1.733,3.376-1.733
	s3.624,1.733,3.624,1.733V70.515z"/>
<path fill="#111111" d="M282.06,70.507V61.47l-0.163-0.82l-12.014-14.208v-5.794c0-0.754,0.252-0.985,0.252-0.985l-0.018-0.003
	c0.461-0.457,1.262-0.941,2.621-0.941c2.163,0,3.092,1.219,3.332,1.607h-0.01v6.008h5.898v-6.008h-0.01
	c-0.092-0.932-1-7.192-9.021-7.192c-8.663,0-9.01,7.318-9.01,7.318c-0.069,0.18,0.029,8.142,0.029,8.142l12.105,14.685v7.272
	c-0.084,0.196-0.805,1.695-3.359,1.695c-2.73,0-3.623-1.731-3.623-1.731h-0.012V61.47h-6.005v9.191h0.026
	c0.082,0.992,0.935,7.17,9.41,7.17c8.473,0,9.461-6.178,9.564-7.17h0.001v-0.012c0.009-0.08,0.015-0.135,0.015-0.135L282.06,70.507z
	"/>
<path fill="#111111" d="M225.605,33.103c-2.681,0-5.08,1.922-6.631,3.543v-3.019h-6v68.75h6V73.931
	c1.058,1.359,3.345,3.793,6.22,3.793c3.988,0,6.686-3.226,6.686-6.685V37.501C231.879,37.501,230.237,33.103,225.605,33.103
	 M226.075,69.574c0,0-0.236,2.933-3.285,2.933c-1.701,0-3-1.242-3.814-2.34V40.879c0.834-1.024,2.346-2.616,3.699-2.616
	c1.992,0,3.4,0.352,3.4,3.401V69.574z"/>
<rect x="41.917" y="22.375" fill="#111111" width="4.875" height="55.75"/>
<rect x="41.917" y="7.375" fill="#111111" width="4.875" height="8.375"/>
<rect x="95.292" y="22.375" fill="#111111" width="4.875" height="55.75"/>
<rect x="95.292" y="7.375" fill="#111111" width="4.875" height="8.375"/>
<path fill="#111111" d="M25.917,28.508c-0.619-1.148-3.651-6.133-9.625-6.133c0,0-7.875,0-10.5,6.75
	C5.408,30.66,5.16,32.327,5,33.978v35.089c0.418,1.964,2.607,9.808,10.917,9.808c6.048,0,8.797-3.49,10-6.031v6.031h4.875V0h-4.875
	V28.508z M25.917,66.021c-0.885,2.039-3.85,7.955-8.475,7.955c-4.875,0-7.151-5.194-7.652-6.517
	c-0.014-0.222-0.027-0.456-0.04-0.692v-17.19V32.798c0.095-0.312,0.19-0.608,0.285-0.891c1.084-2.02,3.372-5.106,7.267-5.106
	c4.539,0,7.533,5.31,8.615,7.603V66.021z"/>
<path fill="#111111" d="M117.667,8.25h-4.875v14h-5.5v4.875h5.5v45.25c0,4.599,3.261,5.722,3.261,5.722h9.748v-4.078
	c0,0-3.549,0.123-5.873,0.123c-2.325,0-2.261-1.767-2.261-1.767v-45.25h8.25V22.25h-8.25V8.25z"/>
<path fill="#111111" d="M83.886,67.313v-0.075V22.23h-4.529v4.409c-1.184-1.526-4.122-4.402-9.62-4.654
	c-9.619,0-10.454,7.755-10.454,7.755v41.767c0,1.816,3.73,6.381,10.111,6.381c6.38,0,9.423-4.761,9.423-4.761
	s0.098,6.037,0.098,10.208c0,4.172-1.717,7.755-9.57,7.755c-7.853,0-6.43-7.067-6.43-7.067H57.86
	c-1.235,4.658,2.697,9.55,6.902,10.942c1.845,0.612,3.809,0.782,5.752,0.776c2.17-0.008,4.373-0.237,6.385-1.049
	c2.869-1.158,5.006-3.697,6.054-6.571c1.159-3.179,0.933-6.624,0.933-9.938V67.313z M79.357,67.237c0,0-3.828,6.772-9.227,6.772
	s-7.215-5.252-7.215-5.252V30.87c-0.147,0.098,1.914-5.056,7.362-5.056c4.683,0,7.375,3.464,8.234,4.791v0.02
	c0,0,0.029,0.036,0.07,0.09c0.153,0.244,0.236,0.4,0.236,0.4l0.002-0.007c0.194,0.37,0.422,0.967,0.538,1.824V67.237z"/>
<path fill="#111111" d="M252.706,17.988c0,3.539-2.869,6.408-6.408,6.408s-6.407-2.869-6.407-6.408c0-3.539,2.868-6.408,6.407-6.408
	S252.706,14.449,252.706,17.988"/>
<path fill="#111111" d="M281.561,17.988c0,3.539-2.869,6.408-6.408,6.408s-6.408-2.869-6.408-6.408c0-3.539,2.869-6.408,6.408-6.408
	S281.561,14.449,281.561,17.988"/>
<path fill="#111111" d="M223.851,17.988c0,3.539-2.868,6.408-6.407,6.408s-6.408-2.869-6.408-6.408c0-3.539,2.869-6.408,6.408-6.408
	S223.851,14.449,223.851,17.988"/>
<g>
	<path fill="#111111" d="M191.817,22.166V74.87c6.598-6.825,10.662-16.111,10.662-26.352
		C202.479,38.277,198.415,28.991,191.817,22.166z"/>
	<path fill="#111111" d="M144.248,72.01c2.666,0.278,4.722-0.819,5.577-1.378c0.009-0.023,0.021-0.047,0.029-0.072
		c0.208-0.148,0.416-0.317,0.623-0.483l2.621-2.923V50.379c-2.069,1.548-7.973,6.021-10.332,8.379
		c-2.194,2.194-2.144,6.398-1.997,8.285c-0.005,0.002-0.011,0.002-0.017,0.003C140.777,67.803,141.054,71.677,144.248,72.01z"/>
	<path fill="#111111" d="M184.344,76.75V16.159c-2.521-1.546-5.239-2.8-8.104-3.728v64.32h-7.473V10.825
		c-1.387-0.153-2.793-0.239-4.221-0.239c-20.948,0-37.931,16.983-37.931,37.932c0,8.436,2.757,16.226,7.415,22.525
		c-0.402-1.414-0.576-2.823-0.566-4.013c0.001-0.225,0.014-0.424,0.026-0.624c0-0.06-0.005-0.119-0.005-0.181
		c0-1.959,0.288-3.728,0.864-5.305c0.576-1.576,1.362-2.988,2.357-4.24c0.532-0.668,1.117-1.295,1.747-1.882
		c0.052-0.084,0.113-0.166,0.197-0.239c0.086-0.076,0.279-0.225,0.55-0.426c0.32-0.268,0.651-0.525,0.994-0.775
		c0.327-0.237,0.673-0.449,1.009-0.676c3.511-2.507,9.554-6.726,11.644-8.183l-0.082-5.991c0,0-1.604-3.086-5.391-3.086
		c-3.245,0-5.124,2.412-5.598,3.103v7.269h-6.75l0.124-7.696c0-4.897,6.915-8.725,12.882-8.725c5.104,0,8.034,2.374,8.776,3.061
		c0.324,0.267,0.631,0.547,0.906,0.854c0.943,1.051,1.625,2.33,2.043,3.835c0.42,1.507,0.629,3.168,0.629,4.986v34.558h-6.725
		v-5.083c-1.772,2.77-4.442,5.464-8.347,6.436c-1.625,0.404-3.05,0.455-4.298,0.24c6.467,5.123,14.637,8.19,23.527,8.19
		c9.736,0,18.611-3.671,25.326-9.699h-5.527V76.75z"/>
</g>
</svg>
