<?xml version="1.0" encoding="utf-8"?>
<!-- Generator: Adobe Illustrator 16.0.0, SVG Export Plug-In . SVG Version: 6.00 Build 0)  -->
<!DOCTYPE svg PUBLIC "-//W3C//DTD SVG 1.1//EN" "http://www.w3.org/Graphics/SVG/1.1/DTD/svg11.dtd">
<svg version="1.1" id="Layer_1" xmlns="http://www.w3.org/2000/svg" xmlns:xlink="http://www.w3.org/1999/xlink" x="0px" y="0px"
	 width="86.883px" height="86.882px" viewBox="0 0 86.883 86.882" enable-background="new 0 0 86.883 86.882" xml:space="preserve">
<g>
	<path fill="#C4C4C4" d="M30.694,31.262c-4.394,4.394-4.394,11.517,0,15.909c4.211,4.213,10.931,4.384,15.351,0.521
		c0.234-0.452,0.54-0.877,0.919-1.257l0.039-0.04c0.255-0.252,0.529-0.474,0.817-0.663c3.129-4.394,2.726-10.53-1.215-14.47
		C42.211,26.868,35.088,26.868,30.694,31.262z"/>
	<path fill="#C4C4C4" d="M74.159,12.723c-16.966-16.965-44.47-16.965-61.436,0c-16.965,16.965-16.965,44.471,0,61.437
		c16.965,16.965,44.47,16.965,61.436,0C91.125,57.194,91.125,29.688,74.159,12.723z M64.43,63.821l-0.039,0.039
		c-1.978,1.978-5.184,1.978-7.16,0l-9.481-9.481c-6.794,4.084-15.741,3.199-21.601-2.66c-6.905-6.904-6.905-18.097,0-25.001
		c6.904-6.905,18.098-6.905,25.002,0c5.441,5.441,6.593,13.55,3.455,20.123l9.824,9.824C66.407,58.64,66.407,61.843,64.43,63.821z"
		/>
</g>
</svg>
